<svg xmlns="http://www.w3.org/2000/svg" xmlns:xlink="http://www.w3.org/1999/xlink" version="1.1" id="Layer_1" x="0px" y="0px" viewBox="0 0 441.3 86.4" enable-background="new 0 0 441.3 86.4" xml:space="preserve" width="441.3"  height="86.4" >
<rect x="0" y="0" fill="#CDD500" width="168.8" height="86.4"/>
<rect x="168.8" y="0" fill="#A68955" width="272.4" height="86.4"/>
<path fill="#8FA82E" d="M143.5,60.6l-67.4-4.2l-47.2,9.5l7.4,4.2l25.5,0.9l2.7,2.2h10.9c0.9,3.8,4.3,6.6,8.3,6.6  c4,0,7.4-2.8,8.3-6.6h32.2l1-0.9l26.1-1.6l5-1.8L143.5,60.6z"/>
<path fill="#FFFFFF" d="M83.7,66c2.9,0,5.2,2.3,5.2,5.2s-2.3,5.2-5.2,5.2c-2.9,0-5.2-2.3-5.2-5.2S80.8,66,83.7,66z M83.7,66.6  c-0.3,0-0.7,0-1,0.1c0.1,1.9,0.5,3.3,1,3.3c0.5,0,0.8-1.4,1-3.3C84.4,66.7,84.1,66.6,83.7,66.6z M87.1,68.1  c-1.6,1.1-2.6,2.1-2.4,2.5c0.2,0.4,1.6,0,3.4-0.8c-0.1-0.3-0.2-0.6-0.4-0.9C87.5,68.6,87.3,68.4,87.1,68.1z M80.3,68.1  c-0.2,0.2-0.4,0.5-0.6,0.8c-0.2,0.3-0.3,0.6-0.4,0.9c1.7,0.8,3.1,1.2,3.3,0.8C82.9,70.2,81.9,69.2,80.3,68.1z M85.1,71.6  c-0.2,0-0.3,0.1-0.4,0.2c-0.2,0.4,0.8,1.4,2.4,2.5c0.2-0.2,0.4-0.5,0.6-0.8c0.2-0.3,0.3-0.6,0.4-0.9C86.8,72,85.7,71.6,85.1,71.6z   M82.3,71.6c-0.6,0-1.7,0.4-3,1c0.1,0.3,0.2,0.6,0.4,0.9c0.2,0.3,0.4,0.6,0.6,0.8c1.6-1.1,2.6-2.1,2.4-2.5  C82.7,71.7,82.5,71.6,82.3,71.6z M83.7,72.4c-0.5,0-0.8,1.4-1,3.3c0.3,0.1,0.6,0.1,1,0.1c0.3,0,0.7,0,1-0.1  C84.6,73.8,84.2,72.4,83.7,72.4z M55.8,21.3h-7.9c-1.4,0-2.5,1.1-2.5,2.5v38.9c0,1.4,1.1,2.5,2.5,2.5h7.9c1.4,0,2.5-1.1,2.5-2.5  V23.8C58.3,22.4,57.2,21.3,55.8,21.3z M48.2,37V25.9c0-0.9,0.8-1.7,1.7-1.7h4c0.9,0,1.7,0.8,1.7,1.7V37c0,0.9-0.8,1.7-1.7,1.7h-4  C48.9,38.7,48.2,38,48.2,37z M57,43.1c-0.2,0.2-0.5,0.4-0.9,0.6c-0.7,0.3-1.6,0.5-2.7,0.5h-0.2l0-0.1c-0.1-0.5-0.2-1.1-0.2-1.7  c0-0.6,0.1-1.2,0.2-1.7l0-0.1h0.2c1,0,2,0.2,2.7,0.5c0.4,0.2,0.6,0.3,0.9,0.6c0.2,0.2,0.3,0.5,0.3,0.8C57.4,42.6,57.2,42.9,57,43.1z   M56.8,41.8c0.2,0.2,0.2,0.3,0.2,0.5c0,0.2-0.1,0.3-0.2,0.5c-0.2,0.2-0.4,0.3-0.7,0.5c-0.6,0.3-1.4,0.4-2.4,0.5  c-0.1-0.4-0.2-0.9-0.2-1.5s0.1-1,0.2-1.5c0.9,0,1.8,0.2,2.4,0.5C56.3,41.5,56.6,41.7,56.8,41.8z M186.7,65h-13.2v-2.3l4.3-2.4  L177,59l-4.3,3.6h-1V65h-7.2c-3-29.6-15.8-50.2-32.8-50.2H25.3c-5.4,0-14.1-0.2-14.1,3.3l-0.3,36.7c-0.8,1.4-1,2.9,0.3,4.6l0.9,6.5  c0.6,4.4,6.2,3.6,10.5,3.6h52.7c3.1-8.7,13.9-8.5,16.6,0l59.8,0.7l11.1-0.6l8.8,0.1v4.8v1.8h3.3c0.3,1.3,1.5,2.2,2.9,2.2  c1.6,0,3-1.3,3-3c0-1.6-1.3-3-3-3c-1.3,0-2.4,0.8-2.8,1.9h-1.6v-4.8l7.6,0.1l3.4-2.4h4.1C188.7,66,188.2,65,186.7,65z M58.7,62.7  c0,1.6-1.3,2.9-2.9,2.9h-7.9c-1.6,0-2.9-1.3-2.9-2.9V23.8c0-1.6,1.3-2.9,2.9-2.9h7.9c1.6,0,2.9,1.3,2.9,2.9V62.7z M91.7,39.3  c0,0.9-0.8,1.7-1.7,1.7H75.4c-0.9,0-1.7-0.8-1.7-1.7v-7c0-0.9,0.8-1.7,1.7-1.7H90c0.9,0,1.7,0.8,1.7,1.7V39.3z M142.6,47.8l-25.4-1  c-1.5-0.1-2.8-0.5-3.4-2.3c-1.1-3.4-1.7-7.2-1.8-11.3c0-1.8,1.5-2.6,2.8-2.6h25.7c1.2,0,2,0.4,3.1,2.6c1.5,3,2.2,6.7,2.9,10.4  C147.1,45.9,146.9,47.9,142.6,47.8z"/>
<g>
	<path fill="#FFFFFF" d="M184.1,43.5l11.5-25.9c0.8-1.8,2.3-2.9,4.2-2.9h0.4c2,0,3.4,1.1,4.2,2.9l11.5,25.9c0.2,0.5,0.4,1,0.4,1.5   c0,1.9-1.5,3.5-3.4,3.5c-1.7,0-2.8-1-3.5-2.5l-2.2-5.2h-14.5l-2.3,5.4c-0.6,1.4-1.8,2.3-3.3,2.3c-1.9,0-3.3-1.5-3.3-3.4   C183.7,44.6,183.9,44,184.1,43.5z M204.5,34.4l-4.6-10.9l-4.6,10.9H204.5z"/>
	<path fill="#FFFFFF" d="M222,18.6c0-2,1.6-3.6,3.6-3.6c2,0,3.6,1.6,3.6,3.6v11l13.3-13.3c0.9-0.9,1.8-1.4,3.1-1.4   c2,0,3.3,1.6,3.3,3.3c0,1.1-0.5,2-1.3,2.7l-9.3,8.6l10.1,12.7c0.6,0.7,1,1.5,1,2.5c0,2-1.6,3.5-3.7,3.5c-1.4,0-2.3-0.7-3.1-1.7   l-9.4-12.3l-4.1,3.9v6.6c0,2-1.6,3.6-3.6,3.6c-2,0-3.6-1.6-3.6-3.6V18.6z"/>
	<path fill="#FFFFFF" d="M255.4,18.9c0-2,1.6-3.6,3.6-3.6h11.4c4.2,0,7.4,1.2,9.6,3.3c1.8,1.8,2.8,4.4,2.8,7.5v0.1   c0,5.2-2.6,8.4-6.6,10l5,6.1c0.7,0.9,1.2,1.6,1.2,2.8c0,2-1.7,3.3-3.4,3.3c-1.6,0-2.7-0.8-3.6-1.9l-7-8.9h-5.8v7.2   c0,2-1.6,3.6-3.6,3.6c-2,0-3.6-1.6-3.6-3.6V18.9z M270,31.3c3.5,0,5.5-1.9,5.5-4.7v-0.1c0-3.1-2.2-4.7-5.7-4.7h-7.2v9.4H270z"/>
	<path fill="#FFFFFF" d="M287.9,31.8L287.9,31.8c0-9.4,7.4-17.1,17.5-17.1s17.4,7.6,17.4,16.9v0.1c0,9.4-7.4,17-17.5,17   S287.9,41.2,287.9,31.8z M315.3,31.8L315.3,31.8c0-5.7-4.1-10.4-10-10.4c-5.8,0-9.9,4.6-9.9,10.2v0.1c0,5.6,4.1,10.3,10,10.3   C311.3,42.1,315.3,37.5,315.3,31.8z"/>
	<path fill="#FFFFFF" d="M335.4,35.5l-10.6-14.4c-0.5-0.7-0.9-1.6-0.9-2.6c0-1.9,1.6-3.5,3.6-3.5c1.6,0,2.7,0.9,3.6,2.2l8,11.5   l8.1-11.6c0.9-1.3,2-2.2,3.5-2.2c2.2,0,3.5,1.6,3.5,3.5c0,1-0.5,1.9-0.9,2.5l-10.6,14.3v9.5c0,2-1.6,3.6-3.6,3.6   c-2,0-3.6-1.6-3.6-3.6V35.5z"/>
	<path fill="#FFFFFF" d="M358.2,18.9c0-2,1.6-3.6,3.6-3.6h9.2c10.3,0,17.5,7.1,17.5,16.4v0.1c0,9.3-7.1,16.4-17.5,16.4h-9.2   c-2,0-3.6-1.6-3.6-3.6V18.9z M371,41.7c5.9,0,9.9-4,9.9-9.8v-0.1c0-5.8-4-9.9-9.9-9.9h-5.6v19.8H371z"/>
	<path fill="#FFFFFF" d="M392.6,27.3c2.4-0.6,3.7-2.2,3.6-4.5c-1.6-0.4-3.3-1.8-3.3-3.9v-0.1c0-2.2,1.6-3.9,3.9-3.9   c2.6,0,4.2,2,4.2,5.3v0.2c0,3.4-1,6-2.8,7.7c-1.4,1.4-3.5,2.3-5.3,2.3c-1.3,0-1.8-0.8-1.8-1.6S391.8,27.5,392.6,27.3z"/>
	<path fill="#FFFFFF" d="M404.9,44.7c-0.8-0.6-1.4-1.6-1.4-2.7c0-1.9,1.5-3.3,3.4-3.3c0.9,0,1.6,0.3,2.1,0.7c2.5,1.8,5.2,3,8.4,3   c3,0,4.7-1.2,4.7-3.1v-0.1c0-1.8-1.1-2.8-6.6-4.2c-6.6-1.7-10.9-3.5-10.9-10.1v-0.1c0-6,4.8-9.9,11.5-9.9c4,0,7.5,1,10.4,2.9   c0.8,0.5,1.6,1.5,1.6,2.9c0,1.9-1.5,3.3-3.4,3.3c-0.7,0-1.3-0.2-1.8-0.5c-2.4-1.4-4.7-2.2-6.9-2.2c-2.8,0-4.2,1.3-4.2,2.9v0.1   c0,2.2,1.4,2.9,7.1,4.3c6.7,1.7,10.4,4.1,10.4,9.9v0.1c0,6.5-5,10.2-12.1,10.2C412.9,48.7,408.5,47.3,404.9,44.7z"/>
	<path fill="#FFFFFF" d="M195.3,66.8L195.3,66.8c0-4.2,3.1-7.6,7.7-7.6c2.2,0,3.7,0.6,4.9,1.5c0.3,0.3,0.6,0.7,0.6,1.3   c0,0.9-0.7,1.6-1.6,1.6c-0.4,0-0.7-0.2-1-0.3c-0.9-0.7-1.8-1-3-1c-2.5,0-4.3,2.1-4.3,4.6v0c0,2.5,1.7,4.6,4.3,4.6   c1.4,0,2.3-0.4,3.2-1.2c0.3-0.2,0.6-0.4,1-0.4c0.8,0,1.5,0.7,1.5,1.5c0,0.5-0.3,0.9-0.5,1.2c-1.3,1.2-2.9,1.8-5.2,1.8   C198.5,74.4,195.3,71,195.3,66.8z"/>
	<path fill="#FFFFFF" d="M211.1,72.1l5.1-11.6c0.4-0.8,1-1.3,1.9-1.3h0.2c0.9,0,1.5,0.5,1.9,1.3l5.1,11.6c0.1,0.2,0.2,0.4,0.2,0.7   c0,0.9-0.7,1.6-1.5,1.6c-0.8,0-1.3-0.4-1.6-1.1l-1-2.3h-6.5l-1,2.4c-0.3,0.6-0.8,1-1.5,1c-0.8,0-1.5-0.7-1.5-1.5   C210.9,72.5,211,72.3,211.1,72.1z M220.2,68l-2-4.9l-2,4.9H220.2z"/>
	<path fill="#FFFFFF" d="M228.4,61c0-0.9,0.7-1.6,1.6-1.6h5.1c1.9,0,3.3,0.5,4.3,1.5c0.8,0.8,1.3,2,1.3,3.4v0c0,2.3-1.2,3.7-2.9,4.5   l2.2,2.7c0.3,0.4,0.5,0.7,0.5,1.2c0,0.9-0.8,1.5-1.5,1.5c-0.7,0-1.2-0.4-1.6-0.8l-3.1-4h-2.6v3.2c0,0.9-0.7,1.6-1.6,1.6   c-0.9,0-1.6-0.7-1.6-1.6V61z M234.9,66.6c1.6,0,2.5-0.8,2.5-2.1v0c0-1.4-1-2.1-2.5-2.1h-3.2v4.2H234.9z"/>
	<path fill="#FFFFFF" d="M243.2,72.1l5.1-11.6c0.4-0.8,1-1.3,1.9-1.3h0.2c0.9,0,1.5,0.5,1.9,1.3l5.1,11.6c0.1,0.2,0.2,0.4,0.2,0.7   c0,0.9-0.7,1.6-1.5,1.6c-0.8,0-1.3-0.4-1.6-1.1l-1-2.3H247l-1,2.4c-0.3,0.6-0.8,1-1.5,1c-0.8,0-1.5-0.7-1.5-1.5   C243,72.5,243.1,72.3,243.2,72.1z M252.3,68l-2-4.9l-2,4.9H252.3z"/>
	<path fill="#FFFFFF" d="M263,73.1l-4.8-11.4c-0.1-0.3-0.2-0.5-0.2-0.8c0-0.9,0.7-1.6,1.6-1.6c0.8,0,1.4,0.5,1.6,1.1l3.7,9.5   l3.7-9.6c0.2-0.5,0.8-1,1.6-1c0.9,0,1.6,0.7,1.6,1.6c0,0.3-0.1,0.5-0.2,0.7l-4.8,11.5c-0.3,0.8-0.9,1.3-1.8,1.3h-0.2   C263.9,74.4,263.3,73.9,263,73.1z"/>
	<path fill="#FFFFFF" d="M272.4,72.1l5.1-11.6c0.4-0.8,1-1.3,1.9-1.3h0.2c0.9,0,1.5,0.5,1.9,1.3l5.1,11.6c0.1,0.2,0.2,0.4,0.2,0.7   c0,0.9-0.7,1.6-1.5,1.6c-0.8,0-1.3-0.4-1.6-1.1l-1-2.3h-6.5l-1,2.4c-0.3,0.6-0.8,1-1.5,1c-0.8,0-1.5-0.7-1.5-1.5   C272.2,72.5,272.3,72.3,272.4,72.1z M281.5,68l-2-4.9l-2,4.9H281.5z"/>
	<path fill="#FFFFFF" d="M289.7,61c0-0.9,0.7-1.6,1.6-1.6h0.3c0.8,0,1.2,0.4,1.7,0.9l6.2,8.2v-7.6c0-0.9,0.7-1.6,1.6-1.6   s1.6,0.7,1.6,1.6v11.7c0,0.9-0.7,1.6-1.6,1.6h-0.1c-0.8,0-1.2-0.4-1.7-0.9l-6.5-8.5v7.9c0,0.9-0.7,1.6-1.6,1.6s-1.6-0.7-1.6-1.6V61   z"/>
	<path fill="#FFFFFF" d="M313.2,72.6c-0.4-0.3-0.6-0.7-0.6-1.2c0-0.8,0.7-1.5,1.5-1.5c0.4,0,0.7,0.1,0.9,0.3   c1.1,0.8,2.3,1.3,3.8,1.3c1.3,0,2.1-0.5,2.1-1.4v0c0-0.8-0.5-1.2-3-1.9c-3-0.8-4.9-1.6-4.9-4.5v0c0-2.7,2.1-4.4,5.1-4.4   c1.8,0,3.3,0.5,4.7,1.3c0.4,0.2,0.7,0.7,0.7,1.3c0,0.8-0.7,1.5-1.5,1.5c-0.3,0-0.6-0.1-0.8-0.2c-1.1-0.6-2.1-1-3.1-1   c-1.2,0-1.9,0.6-1.9,1.3v0c0,1,0.6,1.3,3.2,1.9c3,0.8,4.7,1.8,4.7,4.4v0c0,2.9-2.2,4.6-5.4,4.6C316.8,74.3,314.8,73.8,313.2,72.6z"/>
	<path fill="#FFFFFF" d="M330.4,62.4h-3.1c-0.8,0-1.5-0.7-1.5-1.5s0.7-1.5,1.5-1.5h9.4c0.8,0,1.5,0.7,1.5,1.5s-0.7,1.5-1.5,1.5h-3.1   v10.2c0,0.9-0.7,1.6-1.6,1.6c-0.9,0-1.6-0.7-1.6-1.6V62.4z"/>
	<path fill="#FFFFFF" d="M339.8,66.8L339.8,66.8c0-4.2,3.3-7.6,7.8-7.6s7.8,3.4,7.8,7.6v0c0,4.2-3.3,7.6-7.8,7.6   S339.8,71,339.8,66.8z M352,66.8L352,66.8c0-2.6-1.8-4.7-4.5-4.7s-4.4,2.1-4.4,4.6v0c0,2.5,1.8,4.6,4.5,4.6S352,69.3,352,66.8z"/>
	<path fill="#FFFFFF" d="M358.7,61c0-0.9,0.7-1.6,1.6-1.6h5.1c1.9,0,3.3,0.5,4.3,1.5c0.8,0.8,1.3,2,1.3,3.4v0c0,2.3-1.2,3.7-2.9,4.5   l2.2,2.7c0.3,0.4,0.5,0.7,0.5,1.2c0,0.9-0.8,1.5-1.5,1.5c-0.7,0-1.2-0.4-1.6-0.8l-3.1-4h-2.6v3.2c0,0.9-0.7,1.6-1.6,1.6   c-0.9,0-1.6-0.7-1.6-1.6V61z M365.2,66.6c1.6,0,2.5-0.8,2.5-2.1v0c0-1.4-1-2.1-2.5-2.1h-3.2v4.2H365.2z"/>
	<path fill="#FFFFFF" d="M373.5,72.1l5.1-11.6c0.4-0.8,1-1.3,1.9-1.3h0.2c0.9,0,1.5,0.5,1.9,1.3l5.1,11.6c0.1,0.2,0.2,0.4,0.2,0.7   c0,0.9-0.7,1.6-1.5,1.6c-0.8,0-1.3-0.4-1.6-1.1l-1-2.3h-6.5l-1,2.4c-0.3,0.6-0.8,1-1.5,1c-0.8,0-1.5-0.7-1.5-1.5   C373.3,72.5,373.4,72.3,373.5,72.1z M382.6,68l-2-4.9l-2,4.9H382.6z"/>
	<path fill="#FFFFFF" d="M389.6,66.8L389.6,66.8c0-4.2,3.3-7.6,7.7-7.6c2.2,0,3.7,0.5,5,1.4c0.3,0.2,0.7,0.7,0.7,1.3   c0,0.9-0.7,1.6-1.6,1.6c-0.5,0-0.8-0.2-1-0.3c-0.9-0.6-1.8-1-3.2-1c-2.4,0-4.2,2.1-4.2,4.6v0c0,2.7,1.8,4.7,4.5,4.7   c1.2,0,2.2-0.3,3-0.9v-2.1h-2.2c-0.8,0-1.4-0.6-1.4-1.4s0.6-1.4,1.4-1.4h3.7c0.9,0,1.6,0.7,1.6,1.6v3.6c0,0.9-0.4,1.6-1.1,2.1   c-1.2,0.7-2.9,1.5-5.1,1.5C392.8,74.4,389.6,71.2,389.6,66.8z"/>
	<path fill="#FFFFFF" d="M407.2,72.5V61c0-0.9,0.7-1.6,1.6-1.6h8.1c0.8,0,1.4,0.7,1.4,1.4s-0.7,1.4-1.4,1.4h-6.6v3h5.6   c0.8,0,1.4,0.7,1.4,1.4s-0.7,1.4-1.4,1.4h-5.6v3.1h6.7c0.8,0,1.4,0.7,1.4,1.4s-0.7,1.4-1.4,1.4h-8.3   C407.9,74.1,407.2,73.4,407.2,72.5z"/>
</g>
<g>
</g>
<g>
</g>
<g>
</g>
<g>
</g>
<g>
</g>
<g>
</g>
</svg>